HIERARCHY
ROOT Hips
{
  OFFSET 0 0 0
  CHANNELS 6 Xposition Yposition Zposition Zrotation Yrotation Xrotation
  JOINT LeftThigh
  {
    OFFSET 8.409438 0 -5.917753
    CHANNELS 3 Zrotation Yrotation Xrotation
    JOINT LeftLeg
    {
      OFFSET 0 0 -42.358652
      CHANNELS 3 Zrotation Yrotation Xrotation
      JOINT LeftFoot
      {
        OFFSET 0 0 -39.357303
        CHANNELS 3 Zrotation Yrotation Xrotation
      }
    }
  }
  JOINT RightThigh
  {
    OFFSET -8.409438 0 -5.917753
    CHANNELS 3 Zrotation Yrotation Xrotation
    JOINT RightLeg
    {
      OFFSET 0 0 -42.358652
      CHANNELS 3 Zrotation Yrotation Xrotation
      JOINT RightFoot
      {
        OFFSET 0 0 -39.357303
        CHANNELS 3 Zrotation Yrotation Xrotation
      }
    }
  }
  JOINT SpineLow
  {
    OFFSET 0 0 4.719101
    CHANNELS 3 Zrotation Yrotation Xrotation
    JOINT SpineMid
    {
      OFFSET 0 0 12.899191
      CHANNELS 3 Zrotation Yrotation Xrotation
      JOINT Chest
      {
        OFFSET 0 0 12.899191
        CHANNELS 3 Zrotation Yrotation Xrotation
        JOINT LeftShoulder
        {
          OFFSET 7.550562 1.41573 9.438202
          CHANNELS 3 Zrotation Yrotation Xrotation
          JOINT LeftArm
          {
            OFFSET 9.155056 0 4.247191
            CHANNELS 3 Zrotation Yrotation Xrotation
            JOINT LeftForearm
            {
              OFFSET 0 0 25.771955
              CHANNELS 3 Zrotation Yrotation Xrotation
              JOINT LeftHand
              {
                OFFSET 0 0 25.197169
                CHANNELS 3 Zrotation Yrotation Xrotation
              }
            }
          }
        }
        JOINT RightShoulder
        {
          OFFSET -7.550562 1.41573 9.438202
          CHANNELS 3 Zrotation Yrotation Xrotation
          JOINT RightArm
          {
            OFFSET -9.155056 0 4.247191
            CHANNELS 3 Zrotation Yrotation Xrotation
            JOINT RightForearm
            {
              OFFSET 0 0 -25.771955
              CHANNELS 3 Zrotation Yrotation Xrotation
              JOINT RightHand
              {
                OFFSET 0 0 -25.197169
                CHANNELS 3 Zrotation Yrotation Xrotation
              }
            }
          }
        }
        JOINT Neck
        {
          OFFSET 0 0 15.101124
          CHANNELS 3 Zrotation Yrotation Xrotation
          JOINT Head
          {
            OFFSET 0 0 11.325843
            CHANNELS 3 Zrotation Yrotation Xrotation
            End Site
            {
              OFFSET 0 0 14.157303
            }
          }
        }
      }
    }
  }
}
MOTION
Frames: 11
Frame Time: 0.0
0.0  101.685394  0.0  12.501564  58.560876  -85.209064  -11.492927  -10.348577  -8.056328  -22.924268  14.31581  18.843146  2.106947  2.427399  2.629175  -28.466845  21.22555  -1.706428  -19.142322  13.571057  24.5192  -1.371599  4.055709  -4.103758  2.748348  1.303246  1.967128  7.618651  3.330822  5.521386  7.618651  3.330822  5.521386  17.233023  14.664305  14.800753  148.603693  17.24537  172.34496  -29.429148  9.136175  127.875319  80.029722  -3.166043  -22.327122  32.542609  -3.196537  9.42791  130.684572  42.980892  106.502051  -82.970459  52.617332  -99.099875  82.643495  28.781047  25.545973  -24.561852  -0.476296  -1.414427  -18.422501  -0.300903  -1.082052  
0.0  101.685394  0.0  12.119168  59.253018  -85.378572  -11.261625  -11.371222  -7.736364  -24.128111  14.620321  17.605307  2.398171  2.45369  2.813036  -27.57948  20.850372  -0.821354  -19.917207  13.367262  24.173446  -1.749351  4.049125  -4.0563  2.641755  1.283456  1.978374  7.326041  3.284646  5.544689  7.326041  3.284646  5.544688  17.381801  15.316317  13.901191  148.500737  17.895615  172.522584  -29.566821  7.873919  127.005813  78.750893  -3.137647  -22.24544  32.755795  -2.879345  9.38713  130.11906  42.589397  105.571362  -83.810068  52.5658  -100.66332  81.521998  28.41011  25.422572  -24.050098  -0.579394  -1.464945  -18.038929  -0.377542  -1.123589  
0.0  101.685394  0.0  11.625966  59.699512  -85.627846  -11.674  -11.790283  -7.68995  -24.138282  14.434871  17.136509  2.47521  2.4334  2.977378  -26.832472  20.23037  -0.332181  -20.219618  13.332187  24.024013  -2.265653  4.072741  -3.989488  2.555774  1.284564  1.987968  7.091599  3.293959  5.566959  7.091599  3.293958  5.566958  17.460772  15.767901  13.25216  148.539024  18.512185  172.80763  -29.57042  7.66366  126.469199  78.061064  -3.097503  -21.918817  33.201496  -2.595581  9.601431  129.397761  41.697434  104.918227  -83.232809  52.072327  -100.604357  81.901611  28.217529  25.975153  -23.57047  -0.709998  -1.586569  -17.679608  -0.472094  -1.219475  
0.0  101.685394  0.0  11.30599  60.005628  -85.670836  -11.77575  -12.143045  -7.65961  -23.924987  14.202719  16.760727  2.82063  2.271908  3.290867  -26.425203  19.778995  -0.13245  -20.227501  13.227651  23.931845  -2.61422  4.161101  -3.923873  2.473542  1.316046  1.975969  6.869136  3.38812  5.533725  6.869136  3.388121  5.533725  17.499247  16.02104  12.889105  148.588011  18.92922  173.144821  -29.64153  7.83472  126.151058  77.795348  -2.99558  -21.299575  33.000214  -2.348984  9.391774  129.007177  39.995011  103.959903  -82.478347  51.743457  -100.010212  82.765789  28.129868  26.448605  -23.168936  -0.793734  -1.707161  -17.378798  -0.53144  -1.31271  
0.0  101.685394  0.0  11.177019  60.100572  -85.561519  -11.621782  -12.378653  -7.664216  -23.707017  14.063699  16.44069  2.47285  2.188826  3.352078  -26.331707  19.549265  -0.114896  -20.091821  13.086633  23.778662  -2.872505  4.192554  -3.854988  2.436515  1.372597  1.957269  6.772119  3.547461  5.486948  6.772119  3.547461  5.486948  17.326915  16.123853  12.823348  148.652879  19.291667  173.52824  -29.813869  7.934149  125.9458  77.656381  -2.781048  -20.524674  32.674418  -2.23589  9.358229  128.55094  38.239991  103.231805  -82.178913  51.895829  -99.278175  83.34645  28.138225  26.613867  -22.9666  -0.843298  -1.823857  -17.227333  -0.564832  -1.401939  
0.0  101.685394  0.0  11.247224  60.069643  -85.389997  -11.355213  -12.434212  -7.615367  -23.628729  13.909616  16.168537  2.19993  2.108193  3.367215  -26.638978  19.591951  -0.16417  -19.623678  12.914296  23.604434  -2.968894  4.192619  -3.812443  2.397578  1.459612  1.990779  6.675412  3.78469  5.585849  6.675412  3.78469  5.585849  17.176755  16.128487  12.641199  148.684749  19.599684  173.907822  -29.994002  7.793869  125.794586  77.416261  -2.540006  -19.642464  32.31008  -2.10186  9.113948  128.104219  36.541239  102.650098  -82.106882  52.283569  -98.353781  83.657007  28.192658  26.530984  -22.929076  -0.960325  -2.040287  -17.199832  -0.644722  -1.568865  
0.0  101.685394  0.0  11.133741  59.738523  -85.469801  -10.821015  -12.503126  -7.473112  -23.767189  13.829901  15.942645  2.034856  2.111948  3.372577  -27.104008  19.707882  -0.227535  -19.135138  12.74635  23.340263  -2.849606  4.201701  -3.781744  2.399444  1.518488  2.011168  6.687133  3.943041  5.648029  6.687133  3.943041  5.648028  16.883015  16.14612  12.661294  148.934646  19.885506  174.28518  -30.119748  7.456929  125.68163  77.165704  -2.234697  -18.629458  31.769792  -1.965537  9.10446  127.719889  35.189075  102.153571  -81.892193  52.47331  -97.181133  84.099723  28.24306  26.357661  -22.974619  -0.983446  -2.180777  -17.234304  -0.65665  -1.675359  
0.0  101.685394  0.0  12.454961  60.556628  -84.027143  -11.518644  -11.919277  -7.744951  -24.135541  13.733395  15.729816  1.983335  2.109193  3.291116  -29.251502  20.318174  -0.91818  -18.467596  12.493048  23.074018  -2.633951  4.203398  -3.769965  2.224184  1.642975  2.024767  6.220463  4.296582  5.687738  6.220463  4.296582  5.687738  16.528066  16.131052  12.622827  149.101715  20.111283  174.57641  -30.112052  6.968563  125.582597  77.021083  -1.806457  -17.534152  31.004012  -1.815188  9.077931  127.250412  34.257274  101.711515  -81.545928  52.369269  -95.946845  84.803086  28.264134  26.302358  -23.324121  -0.943225  -2.308007  -17.496548  -0.620345  -1.77006  
0.0  101.685394  0.0  12.174296  59.942695  -84.365286  -10.921896  -11.858637  -7.538033  -24.518121  13.637843  15.632485  2.1462  2.198665  3.320248  -29.973861  20.533081  -1.09126  -17.688653  12.247079  22.833317  -2.464217  4.232435  -3.752205  2.214933  1.685692  2.052454  6.200991  4.411293  5.767197  6.200991  4.411293  5.767196  16.410765  16.151111  12.624773  149.440339  20.397317  174.881149  -30.078137  6.286542  125.467937  76.960401  -1.22206  -16.513088  30.585002  -1.682152  9.127908  126.90224  33.877595  101.349494  -81.228463  52.060144  -94.843581  85.591515  28.276327  26.26629  -23.372979  -0.921633  -2.369551  -17.533236  -0.601583  -1.815559  
0.0  101.685394  0.0  13.422031  60.501351  -83.118396  -11.600401  -11.189157  -7.74521  -25.118354  13.573624  15.404408  2.487466  2.318656  3.4472  -32.306565  21.168033  -1.971681  -16.834114  11.980669  22.672027  -2.228884  4.272466  -3.758448  1.989175  1.786272  2.06575  5.594122  4.704599  5.798268  5.594122  4.704599  5.798268  16.423029  16.234702  12.620254  150.962063  21.05929  175.729115  -28.681952  5.588083  125.026073  77.03269  -0.499769  -15.706251  30.210021  -1.543867  9.224347  118.674638  31.161568  97.92826  -92.487968  50.879309  -103.825169  86.25593  28.311804  26.116695  -23.588761  -0.78081  -2.427794  -17.694727  -0.492701  -1.854265  
0.0  101.685394  0.0  13.068527  59.692579  -83.682181  -11.071209  -11.070894  -7.442931  -25.193577  13.500419  15.580418  2.599085  2.426263  3.464182  -32.813629  21.426388  -2.158697  -16.14224  11.765377  22.589776  -1.999526  4.359739  -3.776346  1.954173  1.79616  2.09058  5.501069  4.732596  5.864671  5.501069  4.732596  5.864671  16.535595  16.413591  12.743678  151.232657  21.373441  175.99206  -28.553427  4.485468  124.823642  77.198032  0.429813  -15.125747  30.021137  -1.440024  9.435603  118.379321  31.547775  97.692451  -92.213224  50.31616  -103.134534  86.686542  28.412815  25.828098  -23.480696  -0.664659  -2.41843  -17.61328  -0.406217  -1.842593  
